<svg width="269" height="47" viewBox="0 0 269 47" version="1.1" xmlns="http://www.w3.org/2000/svg" xmlns:xlink="http://www.w3.org/1999/xlink">
<title>logo-full</title>
<desc>Created using Figma</desc>
<g id="Canvas" transform="translate(375 -3168)">
<g id="logo-full">
<g id="Group">
<g id="Ellipse">
<mask id="mask0_outline_ins">
<use xlink:href="#path0_fill" fill="white" transform="translate(-375 3168)"/>
</mask>
<g mask="url(#mask0_outline_ins)">
<use xlink:href="#path1_stroke_2x" transform="translate(-375 3168)" fill="#C9C790"/>
</g>
</g>
<g id="watch-studio-logo-horizontal">
<g id="Group">
<g id="Group">
<g id="Vector">
<g id="Vector">
<use xlink:href="#path2_fill" transform="matrix(0.999153 -0.0411719 0.0431885 0.999067 -355.085 3175.7)" fill="#C9C790"/>
</g>
</g>
<g id="Vector">
<g id="Vector">
<use xlink:href="#path3_fill" transform="matrix(0.999153 -0.0411719 -0.0431885 -0.999067 -353.833 3204.64)" fill="#C9C790"/>
</g>
</g>
</g>
</g>
</g>
</g>
<g id="THE WATCH STUDIO">
<use xlink:href="#path4_fill" transform="translate(-313 3158)"/>
</g>
</g>
</g>
<defs>
<path id="path0_fill" d="M 47 23.5C 47 36.4787 36.4787 47 23.5 47C 10.5213 47 0 36.4787 0 23.5C 0 10.5213 10.5213 0 23.5 0C 36.4787 0 47 10.5213 47 23.5Z"/>
<path id="path1_stroke_2x" d="M 45 23.5C 45 35.3741 35.3741 45 23.5 45L 23.5 49C 37.5833 49 49 37.5833 49 23.5L 45 23.5ZM 23.5 45C 11.6259 45 2 35.3741 2 23.5L -2 23.5C -2 37.5833 9.41674 49 23.5 49L 23.5 45ZM 2 23.5C 2 11.6259 11.6259 2 23.5 2L 23.5 -2C 9.41674 -2 -2 9.41674 -2 23.5L 2 23.5ZM 23.5 2C 35.3741 2 45 11.6259 45 23.5L 49 23.5C 49 9.41674 37.5833 -2 23.5 -2L 23.5 2Z"/>
<path id="path2_fill" d="M 12.8008 0L 0 17.4227L 1.93951 17.4227L 12.8008 0Z"/>
<path id="path3_fill" d="M 8.24291 0L 0 11.552L 1.93951 11.552L 8.24291 0Z"/>
<path id="path4_fill" d="M 7.05762 40L 3.58594 40L 3.58594 29.9893L 0.448242 29.9893L 0.448242 27.1504L 10.1865 27.1504L 10.1865 29.9893L 7.05762 29.9893L 7.05762 40ZM 24.8361 40L 21.3469 40L 21.3469 34.7617L 17.3127 34.7617L 17.3127 40L 13.8234 40L 13.8234 27.1504L 17.3127 27.1504L 17.3127 31.9141L 21.3469 31.9141L 21.3469 27.1504L 24.8361 27.1504L 24.8361 40ZM 37.0512 40L 29.4223 40L 29.4223 27.1504L 37.0512 27.1504L 37.0512 29.9365L 32.8939 29.9365L 32.8939 31.958L 36.7436 31.958L 36.7436 34.7441L 32.8939 34.7441L 32.8939 37.1699L 37.0512 37.1699L 37.0512 40ZM 61.4549 40L 57.3504 40L 56.1199 34.4014C 56.0613 34.167 55.9676 33.7012 55.8387 33.0039C 55.7156 32.3066 55.6248 31.7236 55.5662 31.2549C 55.5193 31.6357 55.4432 32.1104 55.3377 32.6787C 55.2322 33.2412 55.1268 33.7598 55.0213 34.2344C 54.9217 34.709 54.4969 36.6309 53.7469 40L 49.6424 40L 46.4607 27.1504L 49.8094 27.1504L 51.2068 33.5928C 51.5232 35.0166 51.74 36.1504 51.8572 36.9941C 51.9334 36.3965 52.0682 35.585 52.2615 34.5596C 52.4607 33.5342 52.6453 32.6846 52.8152 32.0107L 53.949 27.1504L 57.1658 27.1504L 58.2645 32.0107C 58.452 32.79 58.6424 33.6895 58.8357 34.709C 59.0291 35.7285 59.158 36.4902 59.2225 36.9941C 59.2986 36.3438 59.5066 35.2158 59.8465 33.6104L 61.2703 27.1504L 64.6189 27.1504L 61.4549 40ZM 75.9639 40L 75.3311 37.5918L 71.1562 37.5918L 70.5059 40L 66.6914 40L 70.8838 27.0977L 75.5156 27.0977L 79.7607 40L 75.9639 40ZM 74.6104 34.7441L 74.0566 32.6348C 73.9277 32.166 73.7695 31.5596 73.582 30.8154C 73.4004 30.0713 73.2803 29.5381 73.2217 29.2158C 73.1689 29.5146 73.0635 30.0068 72.9053 30.6924C 72.7529 31.3779 72.4102 32.7285 71.877 34.7441L 74.6104 34.7441ZM 88.6272 40L 85.1555 40L 85.1555 29.9893L 82.0178 29.9893L 82.0178 27.1504L 91.7561 27.1504L 91.7561 29.9893L 88.6272 29.9893L 88.6272 40ZM 101.115 29.8135C 100.288 29.8135 99.6439 30.1533 99.1811 30.833C 98.7182 31.5068 98.4867 32.4385 98.4867 33.6279C 98.4867 36.1006 99.4271 37.3369 101.308 37.3369C 101.876 37.3369 102.427 37.2578 102.96 37.0996C 103.494 36.9414 104.03 36.751 104.569 36.5283L 104.569 39.4639C 103.496 39.9385 102.284 40.1758 100.93 40.1758C 98.9906 40.1758 97.5023 39.6133 96.4652 38.4883C 95.434 37.3633 94.9184 35.7373 94.9184 33.6104C 94.9184 32.2803 95.1674 31.1113 95.6654 30.1035C 96.1693 29.0957 96.89 28.3223 97.8275 27.7832C 98.7709 27.2383 99.8783 26.9658 101.15 26.9658C 102.538 26.9658 103.866 27.2676 105.131 27.8711L 104.068 30.6045C 103.593 30.3818 103.119 30.1943 102.644 30.042C 102.169 29.8896 101.66 29.8135 101.115 29.8135ZM 119.895 40L 116.406 40L 116.406 34.7617L 112.372 34.7617L 112.372 40L 108.882 40L 108.882 27.1504L 112.372 27.1504L 112.372 31.9141L 116.406 31.9141L 116.406 27.1504L 119.895 27.1504L 119.895 40ZM 139.359 36.0977C 139.359 36.8945 139.157 37.6035 138.753 38.2246C 138.349 38.8398 137.766 39.3203 137.004 39.666C 136.242 40.0059 135.349 40.1758 134.323 40.1758C 133.468 40.1758 132.75 40.1172 132.17 40C 131.59 39.877 130.986 39.666 130.359 39.3672L 130.359 36.2734C 131.021 36.6133 131.71 36.8799 132.425 37.0732C 133.14 37.2607 133.796 37.3545 134.394 37.3545C 134.909 37.3545 135.287 37.2666 135.527 37.0908C 135.768 36.9092 135.888 36.6777 135.888 36.3965C 135.888 36.2207 135.838 36.0684 135.738 35.9395C 135.645 35.8047 135.489 35.6699 135.272 35.5352C 135.062 35.4004 134.493 35.125 133.567 34.709C 132.729 34.3281 132.1 33.959 131.678 33.6016C 131.262 33.2441 130.951 32.834 130.746 32.3711C 130.547 31.9082 130.447 31.3604 130.447 30.7275C 130.447 29.5439 130.878 28.6211 131.739 27.959C 132.601 27.2969 133.784 26.9658 135.29 26.9658C 136.62 26.9658 137.977 27.2734 139.359 27.8887L 138.296 30.5693C 137.095 30.0186 136.058 29.7432 135.185 29.7432C 134.733 29.7432 134.405 29.8223 134.2 29.9805C 133.995 30.1387 133.893 30.335 133.893 30.5693C 133.893 30.8213 134.021 31.0469 134.279 31.2461C 134.543 31.4453 135.252 31.8086 136.406 32.3359C 137.514 32.834 138.281 33.3701 138.709 33.9443C 139.143 34.5127 139.359 35.2305 139.359 36.0977ZM 148.815 40L 145.343 40L 145.343 29.9893L 142.205 29.9893L 142.205 27.1504L 151.944 27.1504L 151.944 29.9893L 148.815 29.9893L 148.815 40ZM 166.505 27.1504L 166.505 34.8848C 166.505 36.5664 166.028 37.8701 165.073 38.7959C 164.123 39.7158 162.752 40.1758 160.959 40.1758C 159.207 40.1758 157.86 39.7275 156.916 38.8311C 155.979 37.9346 155.51 36.6455 155.51 34.9639L 155.51 27.1504L 158.999 27.1504L 158.999 34.6914C 158.999 35.5996 159.169 36.2588 159.509 36.6689C 159.849 37.0791 160.35 37.2842 161.012 37.2842C 161.721 37.2842 162.234 37.082 162.55 36.6777C 162.872 36.2676 163.034 35.5996 163.034 34.6738L 163.034 27.1504L 166.505 27.1504ZM 181.911 33.3027C 181.911 35.4473 181.319 37.0996 180.135 38.2598C 178.958 39.4199 177.299 40 175.161 40L 171.004 40L 171.004 27.1504L 175.451 27.1504C 177.513 27.1504 179.104 27.6777 180.223 28.7324C 181.348 29.7871 181.911 31.3105 181.911 33.3027ZM 178.307 33.4258C 178.307 32.248 178.073 31.375 177.604 30.8066C 177.141 30.2383 176.435 29.9541 175.486 29.9541L 174.475 29.9541L 174.475 37.1523L 175.249 37.1523C 176.303 37.1523 177.077 36.8477 177.569 36.2383C 178.061 35.623 178.307 34.6855 178.307 33.4258ZM 186.022 40L 186.022 27.1504L 189.512 27.1504L 189.512 40L 186.022 40ZM 206.121 33.5576C 206.121 35.7197 205.591 37.3633 204.53 38.4883C 203.47 39.6133 201.917 40.1758 199.872 40.1758C 197.856 40.1758 196.31 39.6104 195.231 38.4795C 194.159 37.3486 193.623 35.7021 193.623 33.54C 193.623 31.4014 194.156 29.7695 195.223 28.6445C 196.295 27.5137 197.851 26.9482 199.89 26.9482C 201.935 26.9482 203.484 27.5078 204.539 28.627C 205.594 29.7461 206.121 31.3896 206.121 33.5576ZM 197.279 33.5576C 197.279 36.042 198.144 37.2842 199.872 37.2842C 200.751 37.2842 201.401 36.9824 201.823 36.3789C 202.251 35.7754 202.465 34.835 202.465 33.5576C 202.465 32.2744 202.248 31.3281 201.814 30.7188C 201.387 30.1035 200.745 29.7959 199.89 29.7959C 198.149 29.7959 197.279 31.0498 197.279 33.5576Z"/>
</defs>
</svg>
